<svg width="112" height="20" viewBox="0 0 112 20" fill="none" xmlns="http://www.w3.org/2000/svg">
<path fill-rule="evenodd" clip-rule="evenodd" d="M5 0H10.625V9.375L13.4375 6.875L16.25 9.375V0.157522C18.4065 0.712575 20 2.6702 20 5V15C20 17.7614 17.7614 20 15 20H5C2.23858 20 0 17.7614 0 15V5C0 2.23858 2.23858 0 5 0ZM9.375 14.6875C9.375 16.8449 11.1238 18.5938 13.2812 18.5938C15.4387 18.5938 17.1875 16.8449 17.1875 14.6875C17.1875 12.5301 15.4387 10.7812 13.2812 10.7812C11.1238 10.7812 9.375 12.5301 9.375 14.6875ZM15.4909 12.4778C16.077 13.0638 16.4062 13.8587 16.4062 14.6875C16.4062 15.5163 16.077 16.3112 15.4909 16.8972C14.9049 17.4832 14.1101 17.8125 13.2812 17.8125C12.4524 17.8125 11.6576 17.4832 11.0716 16.8972C10.4855 16.3112 10.1562 15.5163 10.1562 14.6875C10.1562 13.8587 10.4855 13.0638 11.0716 12.4778C11.6576 11.8918 12.4524 11.5625 13.2812 11.5625C14.1101 11.5625 14.9049 11.8918 15.4909 12.4778ZM15.1199 14.4113C15.0467 14.338 14.9474 14.2969 14.8438 14.2969H13.6719V12.7344C13.6719 12.6307 13.6307 12.5314 13.5574 12.4582C13.4842 12.3849 13.3849 12.3438 13.2812 12.3438C13.1776 12.3438 13.0783 12.3849 13.0051 12.4582C12.9318 12.5314 12.8906 12.6307 12.8906 12.7344V14.2969C12.8906 14.7266 13.2422 15.0781 13.6719 15.0781H14.8438C14.9474 15.0781 15.0467 15.037 15.1199 14.9637C15.1932 14.8904 15.2344 14.7911 15.2344 14.6875C15.2344 14.5839 15.1932 14.4846 15.1199 14.4113Z" fill="#4A6DA7"/>
<path d="M24.84 2.8H27.24L31.78 15.12L36.3 2.8H38.7V17H36.98V6L32.92 17H30.62L26.56 6V17H24.84V2.8ZM40.2313 6.4H41.9113V17H40.2313V6.4ZM40.1913 2.78H41.9513V4.74H40.1913V2.78ZM49.0941 17.32C47.9207 17.32 46.9074 17.12 46.0541 16.72C45.2007 16.3067 44.5274 15.7267 44.0341 14.98C43.5407 14.2333 43.2541 13.3667 43.1741 12.38L45.8141 12.22C45.9074 12.8467 46.0874 13.3733 46.3541 13.8C46.6207 14.2133 46.9807 14.5333 47.4341 14.76C47.9007 14.9733 48.4674 15.08 49.1341 15.08C49.9741 15.08 50.6207 14.9267 51.0741 14.62C51.5407 14.3 51.7741 13.84 51.7741 13.24C51.7741 12.8533 51.6807 12.5267 51.4941 12.26C51.3074 11.98 50.9674 11.7267 50.4741 11.5C49.9807 11.26 49.2607 11.0267 48.3141 10.8C47.1007 10.52 46.1474 10.2133 45.4541 9.88C44.7607 9.53333 44.2541 9.10667 43.9341 8.6C43.6274 8.09333 43.4741 7.45333 43.4741 6.68C43.4741 5.85333 43.6741 5.12667 44.0741 4.5C44.4874 3.86 45.0807 3.36667 45.8541 3.02C46.6274 2.66 47.5407 2.48 48.5941 2.48C49.6874 2.48 50.6341 2.68 51.4341 3.08C52.2341 3.48 52.8607 4.03333 53.3141 4.74C53.7674 5.44667 54.0474 6.26667 54.1541 7.2L51.5341 7.32C51.4807 6.8 51.3274 6.34667 51.0741 5.96C50.8207 5.56 50.4807 5.25333 50.0541 5.04C49.6407 4.82667 49.1407 4.72 48.5541 4.72C47.8074 4.72 47.2141 4.89333 46.7741 5.24C46.3341 5.57333 46.1141 6.02 46.1141 6.58C46.1141 6.96667 46.2074 7.28667 46.3941 7.54C46.5807 7.79333 46.8941 8.01333 47.3341 8.2C47.7874 8.37333 48.4474 8.56 49.3141 8.76C50.5674 9.02667 51.5674 9.36667 52.3141 9.78C53.0607 10.18 53.5941 10.6533 53.9141 11.2C54.2474 11.7333 54.4141 12.3667 54.4141 13.1C54.4141 13.9533 54.1941 14.7 53.7541 15.34C53.3141 15.9667 52.6874 16.4533 51.8741 16.8C51.0741 17.1467 50.1474 17.32 49.0941 17.32ZM60.1334 17.24C59.0801 17.24 58.1601 17.0133 57.3734 16.56C56.5868 16.0933 55.9734 15.44 55.5334 14.6C55.1068 13.76 54.8934 12.78 54.8934 11.66C54.8934 10.5533 55.1068 9.58 55.5334 8.74C55.9734 7.88667 56.5801 7.23333 57.3534 6.78C58.1401 6.31333 59.0468 6.08 60.0734 6.08C61.0868 6.08 61.9734 6.30667 62.7334 6.76C63.5068 7.21333 64.1001 7.87333 64.5134 8.74C64.9401 9.60667 65.1534 10.6267 65.1534 11.8V12.38H57.5534C57.5934 13.3 57.8401 14 58.2934 14.48C58.7601 14.96 59.3801 15.2 60.1534 15.2C60.7268 15.2 61.2001 15.0733 61.5734 14.82C61.9468 14.5667 62.2134 14.2 62.3734 13.72L64.9934 13.88C64.7134 14.92 64.1401 15.74 63.2734 16.34C62.4068 16.94 61.3601 17.24 60.1334 17.24ZM62.4934 10.66C62.4401 9.82 62.2001 9.18667 61.7734 8.76C61.3468 8.32 60.7801 8.1 60.0734 8.1C59.3801 8.1 58.8068 8.32 58.3534 8.76C57.9134 9.2 57.6468 9.83333 57.5534 10.66H62.4934ZM65.8117 6.32H68.2117L68.3117 9.28L68.0917 9.24C68.2517 8.22667 68.5517 7.48667 68.9917 7.02C69.4317 6.55333 70.0451 6.32 70.8317 6.32H71.8117V8.52H70.8117C70.2517 8.52 69.7917 8.6 69.4317 8.76C69.0851 8.92 68.8184 9.17333 68.6317 9.52C68.4584 9.86667 68.3717 10.3067 68.3717 10.84V17H65.8117V6.32ZM71.6744 6.32H74.3744L77.0944 14.42L79.7944 6.32H82.5144L78.5944 17H75.5744L71.6744 6.32ZM82.9336 6.32H85.4936V17H82.9336V6.32ZM82.8936 2.62H85.5536V4.9H82.8936V2.62ZM91.5261 17.24C90.4728 17.24 89.5528 17.0133 88.7661 16.56C87.9794 16.0933 87.3661 15.44 86.9261 14.6C86.4861 13.7467 86.2661 12.7667 86.2661 11.66C86.2661 10.5533 86.4861 9.58 86.9261 8.74C87.3661 7.88667 87.9794 7.23333 88.7661 6.78C89.5528 6.31333 90.4728 6.08 91.5261 6.08C92.4328 6.08 93.2394 6.24 93.9461 6.56C94.6661 6.88 95.2461 7.34667 95.6861 7.96C96.1261 8.56 96.3994 9.27333 96.5061 10.1L93.8661 10.24C93.7594 9.57333 93.4994 9.06 93.0861 8.7C92.6728 8.34 92.1528 8.16 91.5261 8.16C90.6994 8.16 90.0594 8.46667 89.6061 9.08C89.1528 9.69333 88.9261 10.5533 88.9261 11.66C88.9261 12.7667 89.1528 13.6267 89.6061 14.24C90.0594 14.8533 90.6994 15.16 91.5261 15.16C92.1661 15.16 92.6928 14.98 93.1061 14.62C93.5194 14.2467 93.7728 13.6867 93.8661 12.94L96.5061 13.06C96.4128 13.9133 96.1461 14.6533 95.7061 15.28C95.2661 15.9067 94.6861 16.3933 93.9661 16.74C93.2461 17.0733 92.4328 17.24 91.5261 17.24ZM96.8523 6.32H99.4123V17H96.8523V6.32ZM96.8123 2.62H99.4723V4.9H96.8123V2.62ZM105.445 17.24C104.392 17.24 103.472 17.0133 102.685 16.56C101.898 16.0933 101.285 15.44 100.845 14.6C100.405 13.76 100.185 12.78 100.185 11.66C100.185 10.54 100.405 9.56 100.845 8.72C101.285 7.88 101.898 7.23333 102.685 6.78C103.472 6.31333 104.392 6.08 105.445 6.08C106.485 6.08 107.398 6.31333 108.185 6.78C108.985 7.23333 109.598 7.88 110.025 8.72C110.465 9.56 110.685 10.54 110.685 11.66C110.685 12.78 110.465 13.76 110.025 14.6C109.598 15.44 108.985 16.0933 108.185 16.56C107.398 17.0133 106.485 17.24 105.445 17.24ZM105.445 15.16C106.272 15.16 106.912 14.8533 107.365 14.24C107.818 13.6267 108.045 12.7667 108.045 11.66C108.045 10.5667 107.818 9.71333 107.365 9.1C106.912 8.47333 106.272 8.16 105.445 8.16C104.618 8.16 103.978 8.46667 103.525 9.08C103.072 9.69333 102.845 10.5533 102.845 11.66C102.845 12.7667 103.072 13.6267 103.525 14.24C103.978 14.8533 104.618 15.16 105.445 15.16Z" fill="black"/>
</svg>
