<svg width="20" height="20" viewBox="0 0 20 20" fill="none" xmlns="http://www.w3.org/2000/svg">
<path fillRule="evenodd" clipRule="evenodd" d="M5 0H10.625V9.375L13.4375 6.875L16.25 9.375V0.157522C18.4065 0.712575 20 2.6702 20 5V15C20 17.7614 17.7614 20 15 20H5C2.23858 20 0 17.7614 0 15V5C0 2.23858 2.23858 0 5 0ZM9.375 14.6875C9.375 16.8449 11.1238 18.5938 13.2812 18.5938C15.4387 18.5938 17.1875 16.8449 17.1875 14.6875C17.1875 12.5301 15.4387 10.7812 13.2812 10.7812C11.1238 10.7812 9.375 12.5301 9.375 14.6875ZM15.4909 12.4778C16.077 13.0638 16.4062 13.8587 16.4062 14.6875C16.4062 15.5163 16.077 16.3112 15.4909 16.8972C14.9049 17.4832 14.1101 17.8125 13.2812 17.8125C12.4524 17.8125 11.6576 17.4832 11.0716 16.8972C10.4855 16.3112 10.1562 15.5163 10.1562 14.6875C10.1562 13.8587 10.4855 13.0638 11.0716 12.4778C11.6576 11.8918 12.4524 11.5625 13.2812 11.5625C14.1101 11.5625 14.9049 11.8918 15.4909 12.4778ZM15.1199 14.4113C15.0467 14.338 14.9474 14.2969 14.8438 14.2969H13.6719V12.7344C13.6719 12.6307 13.6307 12.5314 13.5574 12.4582C13.4842 12.3849 13.3849 12.3438 13.2812 12.3438C13.1776 12.3438 13.0783 12.3849 13.0051 12.4582C12.9318 12.5314 12.8906 12.6307 12.8906 12.7344V14.2969C12.8906 14.7266 13.2422 15.0781 13.6719 15.0781H14.8438C14.9474 15.0781 15.0467 15.037 15.1199 14.9637C15.1932 14.8904 15.2344 14.7911 15.2344 14.6875C15.2344 14.5839 15.1932 14.4846 15.1199 14.4113Z" fill="#FFFFFF"/>
</svg>
